<mxfile host="app.diagrams.net" modified="2023-11-14T02:49:57.082Z" agent="Mozilla/5.0 (Windows NT 10.0; Win64; x64) AppleWebKit/537.36 (KHTML, like Gecko) Chrome/119.0.0.0 Safari/537.36 Edg/119.0.0.0" etag="m6ImBNSIcYYnDb5g2qSD" version="22.1.0" type="github">
  <diagram name="第 1 页" id="A6Zkvdzp1pMpmYnJnzD6">
    <mxGraphModel dx="2866" dy="1561" grid="1" gridSize="10" guides="1" tooltips="1" connect="1" arrows="1" fold="1" page="0" pageScale="1" pageWidth="827" pageHeight="1169" math="0" shadow="0">
      <root>
        <mxCell id="0" />
        <mxCell id="1" parent="0" />
        <mxCell id="Da-CEmP_mSu1BHxWHgcb-30" value="" style="rounded=0;whiteSpace=wrap;html=1;sketch=1;hachureGap=4;jiggle=2;curveFitting=1;fontFamily=Architects Daughter;fontSource=https%3A%2F%2Ffonts.googleapis.com%2Fcss%3Ffamily%3DArchitects%2BDaughter;fontSize=20;" parent="1" vertex="1">
          <mxGeometry x="45" y="-40" width="370" height="240" as="geometry" />
        </mxCell>
        <mxCell id="Da-CEmP_mSu1BHxWHgcb-10" style="edgeStyle=none;curved=1;rounded=0;sketch=1;hachureGap=4;jiggle=2;curveFitting=1;orthogonalLoop=1;jettySize=auto;html=1;entryX=0;entryY=0.5;entryDx=0;entryDy=0;fontFamily=Architects Daughter;fontSource=https%3A%2F%2Ffonts.googleapis.com%2Fcss%3Ffamily%3DArchitects%2BDaughter;fontSize=16;startSize=8;endSize=8;startArrow=classic;startFill=1;exitX=1.047;exitY=0.52;exitDx=0;exitDy=0;exitPerimeter=0;" parent="1" source="Da-CEmP_mSu1BHxWHgcb-1" edge="1">
          <mxGeometry relative="1" as="geometry">
            <mxPoint x="45" y="127.5" as="targetPoint" />
            <mxPoint x="-60" y="143.54166666666674" as="sourcePoint" />
          </mxGeometry>
        </mxCell>
        <mxCell id="SOUes4BwHSjvxlmRa64G-4" style="edgeStyle=none;curved=1;rounded=0;sketch=1;hachureGap=4;jiggle=2;curveFitting=1;orthogonalLoop=1;jettySize=auto;html=1;entryX=0.5;entryY=0;entryDx=0;entryDy=0;fontFamily=Architects Daughter;fontSource=https%3A%2F%2Ffonts.googleapis.com%2Fcss%3Ffamily%3DArchitects%2BDaughter;fontSize=16;startSize=8;endSize=8;" edge="1" parent="1" source="Da-CEmP_mSu1BHxWHgcb-1" target="Da-CEmP_mSu1BHxWHgcb-16">
          <mxGeometry relative="1" as="geometry" />
        </mxCell>
        <mxCell id="Da-CEmP_mSu1BHxWHgcb-1" value="xihe-server&lt;br&gt;xihe-website" style="whiteSpace=wrap;html=1;aspect=fixed;sketch=1;hachureGap=4;jiggle=2;curveFitting=1;fontFamily=Architects Daughter;fontSource=https%3A%2F%2Ffonts.googleapis.com%2Fcss%3Ffamily%3DArchitects%2BDaughter;fontSize=20;fillColor=#f8cecc;strokeColor=#b85450;" parent="1" vertex="1">
          <mxGeometry x="-265" y="70" width="150" height="150" as="geometry" />
        </mxCell>
        <mxCell id="Da-CEmP_mSu1BHxWHgcb-2" value="" style="endArrow=none;html=1;rounded=0;sketch=1;hachureGap=4;jiggle=2;curveFitting=1;fontFamily=Architects Daughter;fontSource=https%3A%2F%2Ffonts.googleapis.com%2Fcss%3Ffamily%3DArchitects%2BDaughter;fontSize=16;startSize=8;endSize=8;curved=1;" parent="1" edge="1">
          <mxGeometry width="50" height="50" relative="1" as="geometry">
            <mxPoint x="-300" y="380" as="sourcePoint" />
            <mxPoint x="-300" y="-140" as="targetPoint" />
          </mxGeometry>
        </mxCell>
        <mxCell id="Da-CEmP_mSu1BHxWHgcb-3" value="huawei cloud WAF&lt;br&gt;tls + auth" style="text;html=1;align=center;verticalAlign=middle;resizable=0;points=[];autosize=1;strokeColor=none;fillColor=none;fontSize=20;fontFamily=Architects Daughter;" parent="1" vertex="1">
          <mxGeometry x="-470" y="100" width="190" height="60" as="geometry" />
        </mxCell>
        <mxCell id="Da-CEmP_mSu1BHxWHgcb-4" value="user" style="shape=umlActor;verticalLabelPosition=bottom;verticalAlign=top;html=1;outlineConnect=0;sketch=1;hachureGap=4;jiggle=2;curveFitting=1;fontFamily=Architects Daughter;fontSource=https%3A%2F%2Ffonts.googleapis.com%2Fcss%3Ffamily%3DArchitects%2BDaughter;fontSize=20;" parent="1" vertex="1">
          <mxGeometry x="-460" width="30" height="60" as="geometry" />
        </mxCell>
        <mxCell id="Da-CEmP_mSu1BHxWHgcb-5" value="" style="endArrow=none;html=1;rounded=0;sketch=1;hachureGap=4;jiggle=2;curveFitting=1;fontFamily=Architects Daughter;fontSource=https%3A%2F%2Ffonts.googleapis.com%2Fcss%3Ffamily%3DArchitects%2BDaughter;fontSize=16;startSize=8;endSize=8;curved=1;" parent="1" edge="1">
          <mxGeometry width="50" height="50" relative="1" as="geometry">
            <mxPoint x="-40" y="380" as="sourcePoint" />
            <mxPoint x="-40" y="-140" as="targetPoint" />
          </mxGeometry>
        </mxCell>
        <mxCell id="Da-CEmP_mSu1BHxWHgcb-26" value="white list&lt;br&gt;+ tls" style="edgeLabel;html=1;align=center;verticalAlign=middle;resizable=0;points=[];fontSize=20;fontFamily=Architects Daughter;" parent="Da-CEmP_mSu1BHxWHgcb-5" vertex="1" connectable="0">
          <mxGeometry x="-0.0654" y="1" relative="1" as="geometry">
            <mxPoint x="41" y="-47" as="offset" />
          </mxGeometry>
        </mxCell>
        <mxCell id="Da-CEmP_mSu1BHxWHgcb-7" value="xihe.mindspore.cn" style="text;html=1;align=center;verticalAlign=middle;resizable=0;points=[];autosize=1;strokeColor=none;fillColor=none;fontSize=20;fontFamily=Architects Daughter;" parent="1" vertex="1">
          <mxGeometry x="-255" y="-100" width="180" height="40" as="geometry" />
        </mxCell>
        <mxCell id="Da-CEmP_mSu1BHxWHgcb-8" value="osinfra.cn" style="text;html=1;align=center;verticalAlign=middle;resizable=0;points=[];autosize=1;strokeColor=none;fillColor=none;fontSize=20;fontFamily=Architects Daughter;" parent="1" vertex="1">
          <mxGeometry x="145" y="-160" width="120" height="40" as="geometry" />
        </mxCell>
        <mxCell id="Da-CEmP_mSu1BHxWHgcb-9" style="edgeStyle=none;curved=1;rounded=0;sketch=1;hachureGap=4;jiggle=2;curveFitting=1;orthogonalLoop=1;jettySize=auto;html=1;entryX=0.038;entryY=0.35;entryDx=0;entryDy=0;entryPerimeter=0;fontFamily=Architects Daughter;fontSource=https%3A%2F%2Ffonts.googleapis.com%2Fcss%3Ffamily%3DArchitects%2BDaughter;fontSize=16;startSize=8;endSize=8;" parent="1" source="Da-CEmP_mSu1BHxWHgcb-4" target="Da-CEmP_mSu1BHxWHgcb-1" edge="1">
          <mxGeometry relative="1" as="geometry" />
        </mxCell>
        <mxCell id="Da-CEmP_mSu1BHxWHgcb-11" value="oneid" style="rounded=0;whiteSpace=wrap;html=1;sketch=1;hachureGap=4;jiggle=2;curveFitting=1;fontFamily=Architects Daughter;fontSource=https%3A%2F%2Ffonts.googleapis.com%2Fcss%3Ffamily%3DArchitects%2BDaughter;fontSize=20;" parent="1" vertex="1">
          <mxGeometry x="75" y="-20" width="80" height="40" as="geometry" />
        </mxCell>
        <mxCell id="Da-CEmP_mSu1BHxWHgcb-12" value="finetune/trainning/inference" style="rounded=0;whiteSpace=wrap;html=1;sketch=1;hachureGap=4;jiggle=2;curveFitting=1;fontFamily=Architects Daughter;fontSource=https%3A%2F%2Ffonts.googleapis.com%2Fcss%3Ffamily%3DArchitects%2BDaughter;fontSize=20;" parent="1" vertex="1">
          <mxGeometry x="75" y="80" width="300" height="40" as="geometry" />
        </mxCell>
        <mxCell id="Da-CEmP_mSu1BHxWHgcb-13" value="" style="endArrow=none;html=1;rounded=0;sketch=1;hachureGap=4;jiggle=2;curveFitting=1;fontFamily=Architects Daughter;fontSource=https%3A%2F%2Ffonts.googleapis.com%2Fcss%3Ffamily%3DArchitects%2BDaughter;fontSize=16;startSize=8;endSize=8;curved=1;" parent="1" edge="1">
          <mxGeometry width="50" height="50" relative="1" as="geometry">
            <mxPoint x="-390" y="420" as="sourcePoint" />
            <mxPoint x="60" y="420" as="targetPoint" />
          </mxGeometry>
        </mxCell>
        <mxCell id="Da-CEmP_mSu1BHxWHgcb-16" value="" style="whiteSpace=wrap;html=1;aspect=fixed;sketch=1;hachureGap=4;jiggle=2;curveFitting=1;fontFamily=Architects Daughter;fontSource=https%3A%2F%2Ffonts.googleapis.com%2Fcss%3Ffamily%3DArchitects%2BDaughter;fontSize=20;" parent="1" vertex="1">
          <mxGeometry x="-315" y="520" width="230" height="230" as="geometry" />
        </mxCell>
        <mxCell id="Da-CEmP_mSu1BHxWHgcb-19" value="db" style="rounded=0;whiteSpace=wrap;html=1;sketch=1;hachureGap=4;jiggle=2;curveFitting=1;fontFamily=Architects Daughter;fontSource=https%3A%2F%2Ffonts.googleapis.com%2Fcss%3Ffamily%3DArchitects%2BDaughter;fontSize=20;" parent="1" vertex="1">
          <mxGeometry x="-305" y="530" width="80" height="40" as="geometry" />
        </mxCell>
        <mxCell id="Da-CEmP_mSu1BHxWHgcb-20" value="redis" style="rounded=0;whiteSpace=wrap;html=1;sketch=1;hachureGap=4;jiggle=2;curveFitting=1;fontFamily=Architects Daughter;fontSource=https%3A%2F%2Ffonts.googleapis.com%2Fcss%3Ffamily%3DArchitects%2BDaughter;fontSize=20;" parent="1" vertex="1">
          <mxGeometry x="-205" y="530" width="80" height="40" as="geometry" />
        </mxCell>
        <mxCell id="Da-CEmP_mSu1BHxWHgcb-22" value="kafka" style="rounded=0;whiteSpace=wrap;html=1;sketch=1;hachureGap=4;jiggle=2;curveFitting=1;fontFamily=Architects Daughter;fontSource=https%3A%2F%2Ffonts.googleapis.com%2Fcss%3Ffamily%3DArchitects%2BDaughter;fontSize=20;" parent="1" vertex="1">
          <mxGeometry x="-305" y="590" width="80" height="40" as="geometry" />
        </mxCell>
        <mxCell id="Da-CEmP_mSu1BHxWHgcb-23" value="obs" style="rounded=0;whiteSpace=wrap;html=1;sketch=1;hachureGap=4;jiggle=2;curveFitting=1;fontFamily=Architects Daughter;fontSource=https%3A%2F%2Ffonts.googleapis.com%2Fcss%3Ffamily%3DArchitects%2BDaughter;fontSize=20;" parent="1" vertex="1">
          <mxGeometry x="-305" y="660" width="100" height="40" as="geometry" />
        </mxCell>
        <mxCell id="Da-CEmP_mSu1BHxWHgcb-14" value="huaweicloud.com&lt;br&gt;ak/sk + tls" style="text;html=1;align=center;verticalAlign=middle;resizable=0;points=[];autosize=1;strokeColor=none;fillColor=none;fontSize=20;fontFamily=Architects Daughter;" parent="1" vertex="1">
          <mxGeometry x="-195" y="440" width="170" height="60" as="geometry" />
        </mxCell>
        <mxCell id="Da-CEmP_mSu1BHxWHgcb-28" value="code-server" style="rounded=0;whiteSpace=wrap;html=1;sketch=1;hachureGap=4;jiggle=2;curveFitting=1;fontFamily=Architects Daughter;fontSource=https%3A%2F%2Ffonts.googleapis.com%2Fcss%3Ffamily%3DArchitects%2BDaughter;fontSize=20;" parent="1" vertex="1">
          <mxGeometry x="75" y="30" width="150" height="40" as="geometry" />
        </mxCell>
        <mxCell id="Da-CEmP_mSu1BHxWHgcb-29" value="gitlab" style="rounded=0;whiteSpace=wrap;html=1;sketch=1;hachureGap=4;jiggle=2;curveFitting=1;fontFamily=Architects Daughter;fontSource=https%3A%2F%2Ffonts.googleapis.com%2Fcss%3Ffamily%3DArchitects%2BDaughter;fontSize=20;" parent="1" vertex="1">
          <mxGeometry x="75" y="140" width="150" height="40" as="geometry" />
        </mxCell>
        <mxCell id="SOUes4BwHSjvxlmRa64G-1" value="message-server" style="rounded=0;whiteSpace=wrap;html=1;sketch=1;hachureGap=4;jiggle=2;curveFitting=1;fontFamily=Architects Daughter;fontSource=https%3A%2F%2Ffonts.googleapis.com%2Fcss%3Ffamily%3DArchitects%2BDaughter;fontSize=20;" vertex="1" parent="1">
          <mxGeometry x="180" y="-20" width="190" height="40" as="geometry" />
        </mxCell>
        <mxCell id="SOUes4BwHSjvxlmRa64G-2" value="sync-repo" style="rounded=0;whiteSpace=wrap;html=1;sketch=1;hachureGap=4;jiggle=2;curveFitting=1;fontFamily=Architects Daughter;fontSource=https%3A%2F%2Ffonts.googleapis.com%2Fcss%3Ffamily%3DArchitects%2BDaughter;fontSize=20;" vertex="1" parent="1">
          <mxGeometry x="240" y="30" width="150" height="40" as="geometry" />
        </mxCell>
        <mxCell id="SOUes4BwHSjvxlmRa64G-3" value="hook-delivery" style="rounded=0;whiteSpace=wrap;html=1;sketch=1;hachureGap=4;jiggle=2;curveFitting=1;fontFamily=Architects Daughter;fontSource=https%3A%2F%2Ffonts.googleapis.com%2Fcss%3Ffamily%3DArchitects%2BDaughter;fontSize=20;" vertex="1" parent="1">
          <mxGeometry x="240" y="140" width="150" height="40" as="geometry" />
        </mxCell>
        <mxCell id="SOUes4BwHSjvxlmRa64G-5" value="modelarts" style="rounded=0;whiteSpace=wrap;html=1;sketch=1;hachureGap=4;jiggle=2;curveFitting=1;fontFamily=Architects Daughter;fontSource=https%3A%2F%2Ffonts.googleapis.com%2Fcss%3Ffamily%3DArchitects%2BDaughter;fontSize=20;" vertex="1" parent="1">
          <mxGeometry x="-205" y="590" width="100" height="40" as="geometry" />
        </mxCell>
      </root>
    </mxGraphModel>
  </diagram>
</mxfile>
